<svg width="141" height="18" viewBox="0 0 141 18" fill="none" xmlns="http://www.w3.org/2000/svg"><path d="M6.314 7.893H6.19l.27 9.626L0 17.5 1.004.481H8.65l3.147 9.169h.123L14.647.48h7.891l1.002 17.04h-6.68l.172-9.578-.148-.024-3.245 9.602H9.51L6.315 7.893zm19.465 9.626V.48H37.75v4.765h-6.465v1.468h6.072v4.452h-6.072v1.588h6.883v4.765h-12.39zm23.489-12.2v12.2h-5.85v-12.2H39.14V.48h14.405v4.837h-4.277zM61.033 18a11.97 11.97 0 01-4.031-.698c-1.295-.465-2.393-1.09-3.294-1.877l3.564-3.802c.426.465.983.858 1.672 1.18.688.32 1.376.48 2.065.48.868 0 1.303-.264 1.303-.794 0-.305-.189-.553-.566-.746-.377-.192-1.213-.497-2.507-.914-1.393-.45-2.491-1.05-3.294-1.805-.803-.754-1.205-1.813-1.205-3.176 0-1.011.213-1.901.64-2.672a5.06 5.06 0 011.745-1.852 8.146 8.146 0 012.31-.987A9.998 9.998 0 0162.041 0c1.164 0 2.335.225 3.515.674 1.197.449 2.237 1.067 3.122 1.853L65.04 6.16a3.916 3.916 0 00-1.426-1.058c-.557-.273-1.081-.41-1.573-.41-.95 0-1.426.257-1.426.77 0 .241.115.426.344.554.23.112.689.28 1.377.505.475.16.852.29 1.13.385.28.08.648.217 1.107.41a7.23 7.23 0 011.13.553c.296.176.615.41.96.698.36.289.639.585.835.89.197.305.361.674.492 1.107.148.417.221.867.221 1.348 0 1.925-.713 3.425-2.138 4.5C64.647 17.47 62.967 18 61.033 18zm20.089-.481v-6.473h-4.77v6.473h-5.85V.48h5.826v5.776h4.769V.48h5.875v17.04h-5.85zm9.09 0V.48h7.497c.917 0 1.77.089 2.556.265a7.723 7.723 0 012.213.866 4.159 4.159 0 011.647 1.733c.41.738.615 1.628.615 2.671 0 1.027-.271 1.941-.812 2.743-.524.803-1.27 1.42-2.237 1.853l4.425 6.907H99.38l-3.343-6.088h-.172v6.088h-5.654zm5.604-12.586v2.743h1.155c1.36 0 2.04-.473 2.04-1.42 0-.882-.598-1.323-1.794-1.323h-1.401zm11.157 3.97c0-2.678.909-4.828 2.728-6.448C111.52.818 113.831 0 116.633 0c2.803 0 5.114.818 6.933 2.455 1.836 1.62 2.753 3.77 2.753 6.449 0 2.695-.917 4.885-2.753 6.57C121.73 17.157 119.42 18 116.633 18c-2.785 0-5.096-.842-6.932-2.527-1.819-1.684-2.728-3.874-2.728-6.57zm6.219 0c0 1.108.32 2.022.959 2.744.655.706 1.483 1.059 2.482 1.059.984 0 1.803-.353 2.459-1.059.656-.722.983-1.636.983-2.743 0-1.091-.327-1.974-.983-2.647-.639-.674-1.458-1.011-2.459-1.011-.999 0-1.827.337-2.482 1.01-.639.674-.959 1.557-.959 2.648zm23.531-3.585v12.2h-5.851v-12.2h-4.277V.481H141v4.837h-4.277z" fill="#130F10"/></svg>